<svg width="78" height="18" viewBox="0 0 78 18" fill="none" xmlns="http://www.w3.org/2000/svg">
<path d="M63.8208 16.6808H64.777V16.86H64.4018V17.8624H64.195V16.86H63.8208V16.6808ZM64.9571 16.6808H65.2486L65.5745 17.6054H65.5775L65.8955 16.6808H66.1831V17.8624H65.9861V16.9506H65.9832L65.6553 17.8624H65.4849L65.157 16.9506H65.1541V17.8624H64.9571V16.6808ZM48.9977 17.8614L66.509 0.137451H78L60.2761 17.8614H48.9977ZM58.7941 7.04683L65.7045 0.137451H30.1621C19.6321 0.137451 17.0444 0.831639 11.6809 6.1951L0.0146484 17.8614H10.5446L18.3304 10.1239C20.7202 7.73413 21.9274 7.04782 28.6004 7.04782H58.7951L58.7941 7.04683ZM29.3094 7.66225C22.2572 7.66225 21.1692 8.2304 18.9212 10.502L11.6327 17.8614H22.1863L24.647 15.4007C25.3333 14.7144 25.9015 14.5254 27.7231 14.5254H51.4338L58.1541 7.66323H29.3084L29.3094 7.66225Z" fill="white"/>
</svg>
