<svg width="78" height="18" viewBox="0 0 78 18" fill="none" xmlns="http://www.w3.org/2000/svg">
<path d="M63.8208 16.6809H64.777V16.8601H64.4018V17.8625H64.195V16.8601H63.8208V16.6809ZM64.9571 16.6809H65.2486L65.5745 17.6055H65.5775L65.8955 16.6809H66.1831V17.8625H65.9861V16.9507H65.9832L65.6553 17.8625H65.4849L65.157 16.9507H65.1541V17.8625H64.9571V16.6809ZM48.9977 17.8615L66.509 0.137573H78L60.2761 17.8615H48.9977ZM58.7941 7.04696L65.7045 0.137573H30.1621C19.6321 0.137573 17.0444 0.831761 11.6809 6.19522L0.0146484 17.8615H10.5446L18.3304 10.124C20.7202 7.73425 21.9274 7.04794 28.6004 7.04794H58.7951L58.7941 7.04696ZM29.3094 7.66237C22.2572 7.66237 21.1692 8.23052 18.9212 10.5021L11.6327 17.8615H22.1863L24.647 15.4008C25.3333 14.7145 25.9015 14.5255 27.7231 14.5255H51.4338L58.1541 7.66336H29.3084L29.3094 7.66237Z" fill="#FF1E00"/>
</svg>
