<svg width="17" height="17" viewBox="0 0 17 17" fill="none" xmlns="http://www.w3.org/2000/svg">
<path d="M15.3008 13.5992L17 15.2996L15.3008 17L13.6003 15.2996L11.8997 17L10.2006 15.2996L8.5 17L6.79945 15.2996L5.10028 17L3.39972 15.2996L1.69917 17L0 15.2996L1.69917 13.5992L0 11.9001L1.69917 10.1997L0 8.49931L1.69917 6.80028L0 5.09986L1.69917 3.39945L0 1.70042L1.69917 0L3.39972 1.70042L5.10028 0L6.79945 1.70042L8.5 0L10.2006 1.70042L11.8997 0L13.6003 1.70042L15.3008 0L17 1.70042L15.3008 3.39945L17 5.09986L15.3008 6.80028L17 8.49931L15.3008 10.1997L17 11.9001L15.3008 13.5992ZM5.8093 2.00505L2.00383 5.81021L2.68931 6.49564L6.49479 2.69048L5.8093 2.00505ZM8.83097 2.38307L2.38327 8.83025L3.06875 9.51568L9.51645 3.0685L8.83097 2.38307ZM12.1033 2.51047L2.50929 12.1037L3.19477 12.7891L12.7888 3.1959L12.1033 2.51047ZM13.8052 4.21227L4.21123 13.8055L4.89671 14.4909L14.4907 4.89769L13.8052 4.21227ZM13.9312 7.48571L7.48493 13.9315L8.17041 14.6169L14.6181 8.16975L13.9312 7.48571ZM14.3107 10.5057L10.5052 14.3109L11.1907 14.9963L14.9962 11.1912L14.3107 10.5057Z" fill="white"/>
</svg>
