<svg width="32" height="32" viewBox="0 0 32 32" fill="none" xmlns="http://www.w3.org/2000/svg">
<path d="M0.000112534 32.0007L18.0559 32.0007L18.0559 29.7875L0.000112921 29.7875L0.000112534 32.0007Z" fill="#FF0202"/>
<path d="M2.21338 31.9972L2.21338 13.9414L0.000156641 13.9414L0.000153484 31.9972L2.21338 31.9972Z" fill="#FF0202"/>
<path d="M18.0558 13.9414L0 13.9414L-3.86972e-07 16.1546L18.0558 16.1546L18.0558 13.9414Z" fill="#FF0202"/>
<path d="M15.8428 13.9449L15.8428 32.0007L18.056 32.0007L18.056 13.9449L15.8428 13.9449Z" fill="#FF0202"/>
<path d="M9.02966 24.7812C10.0294 24.7812 10.8398 23.9708 10.8398 22.9711C10.8398 21.9713 10.0294 21.1609 9.02966 21.1609C8.02993 21.1609 7.21948 21.9713 7.21948 22.9711C7.21948 23.9708 8.02993 24.7812 9.02966 24.7812Z" fill="#FF0202"/>
<path d="M5.51208 28.2988C6.51181 28.2988 7.32226 27.4884 7.32226 26.4886C7.32226 25.4889 6.51181 24.6785 5.51208 24.6785C4.51235 24.6785 3.7019 25.4889 3.7019 26.4886C3.7019 27.4884 4.51235 28.2988 5.51208 28.2988Z" fill="#FF0202"/>
<path d="M12.5441 21.2671C13.5438 21.2671 14.3542 20.4566 14.3542 19.4569C14.3542 18.4572 13.5438 17.6467 12.5441 17.6467C11.5443 17.6467 10.7339 18.4572 10.7339 19.4569C10.7339 20.4566 11.5443 21.2671 12.5441 21.2671Z" fill="#FF0202"/>
<path d="M9.3478 12.5274L6.69971 12.5274L8.02552 11.2051L9.3478 12.5274Z" fill="#FF0202"/>
<path d="M20.7925 23.9714L19.4702 25.2973L19.4702 22.6492L20.7925 23.9714Z" fill="#FF0202"/>
<path d="M20.7922 1.56318L19.2295 3.12587L9.83216 12.5268L6.6997 12.5268L8.02552 11.2045L17.6668 1.56318L19.2295 0.000490472L20.7922 1.56318Z" fill="#FF0202"/>
<path d="M32 12.7674L19.2327 0L17.6677 1.56498L30.4351 14.3324L32 12.7674Z" fill="#FF0202"/>
<path d="M32 12.7678L30.4338 14.334L19.4702 25.2976L19.4702 22.1687L28.8711 12.7678L30.4338 11.2051L32 12.7678Z" fill="#FF0202"/>
<path d="M19.1381 10.1125C20.1378 10.1125 20.9482 9.3021 20.9482 8.30236C20.9482 7.30263 20.1378 6.49219 19.1381 6.49219C18.1383 6.49219 17.3279 7.30263 17.3279 8.30236C17.3279 9.3021 18.1383 10.1125 19.1381 10.1125Z" fill="#FF0202"/>
<path d="M23.6984 14.6733C24.6981 14.6733 25.5085 13.8629 25.5085 12.8632C25.5085 11.8634 24.6981 11.053 23.6984 11.053C22.6986 11.053 21.8882 11.8634 21.8882 12.8632C21.8882 13.8629 22.6986 14.6733 23.6984 14.6733Z" fill="#FF0202"/>
<path d="M16.5641 12.5274L12.9614 12.5274C12.9932 12.1138 13.17 11.7107 13.4847 11.396C14.1918 10.6889 15.3373 10.6889 16.0444 11.396C16.359 11.7107 16.5323 12.1138 16.5641 12.5274Z" fill="#FF0202"/>
<path d="M20.6051 18.5128C20.2869 18.831 19.8839 19.0042 19.4702 19.036L19.4702 15.4333C19.8839 15.4652 20.2869 15.6384 20.6051 15.9566C21.3087 16.6637 21.3087 17.8092 20.6051 18.5128Z" fill="#FF0202"/>
</svg>
