<svg width="21" height="30" viewBox="0 0 21 30" fill="none" xmlns="http://www.w3.org/2000/svg">
<path d="M8.27197 4.34908C8.27197 5.02906 8.79669 5.58462 9.44779 5.58462V6.60603H4.55493V4.0308L9.44779 1.45557V3.11934C8.79669 3.11934 8.27197 3.672 8.27197 4.35487V4.34908Z" fill="white"/>
<path d="M21 0L11 3.80412V5.19588L21 9V0Z" fill="white"/>
<path d="M9.44789 4.93934V3.75879C9.13745 3.75879 8.88745 4.0221 8.88745 4.34907C8.88745 4.67603 9.13745 4.93934 9.44789 4.93934Z" fill="white"/>
<path d="M0 8.0036L0 26.2993H1.71978L1.71978 8.0036H0Z" fill="white"/>
<path d="M14.0027 24.4878H0V26.2991H14.0027V24.4878Z" fill="white"/>
<path d="M14.0027 28.1887H0V30.0001H14.0027V28.1887Z" fill="white"/>
<path d="M14.0026 12.6099H5.24438V14.4212H14.0026V12.6099Z" fill="white"/>
<path d="M6.96143 21.6926L6.96143 12.6099H5.24165V21.6926H6.96143Z" fill="white"/>
<path d="M14.0026 19.8813H5.24438V21.6927H14.0026V19.8813Z" fill="white"/>
<path d="M14.0027 8.00342H0V9.81476H14.0027V8.00342Z" fill="white"/>
</svg>
