<svg width="29" height="21" viewBox="0 0 29 21" fill="none" xmlns="http://www.w3.org/2000/svg">
<path d="M16.1271 16.5037V20.5818H3.4873V16.5037C3.4873 14.0224 5.49799 12.0054 7.97932 12.0054H11.6288C14.1164 12.0054 16.1271 14.0203 16.1271 16.5037Z" fill="white"/>
<path d="M9.80723 10.5515C11.7578 10.5515 13.3391 8.97021 13.3391 7.01963C13.3391 5.06905 11.7578 3.48779 9.80723 3.48779C7.85665 3.48779 6.27539 5.06905 6.27539 7.01963C6.27539 8.97021 7.85665 10.5515 9.80723 10.5515Z" fill="white"/>
<path d="M25.0671 5.86182H17.8711V7.60568H25.0671V5.86182Z" fill="white"/>
<path d="M25.0671 9.41895H17.8711V11.1628H25.0671V9.41895Z" fill="white"/>
<path d="M19.6696 12.978H17.8711V14.7219H19.6696V12.978Z" fill="white"/>
<path d="M22.3673 12.978H20.5688V14.7219H22.3673V12.978Z" fill="white"/>
<path d="M26.8678 18.8379H1.74365V20.5817H26.8678V18.8379Z" fill="white"/>
<path d="M26.8678 0H1.74365V1.74386H26.8678V0Z" fill="white"/>
<path d="M28.6094 20.5817V0L26.8655 0V20.5817H28.6094Z" fill="white"/>
<path d="M1.74365 20.5817L1.74365 0L-0.000206232 0L-0.000206232 20.5817H1.74365Z" fill="white"/>
</svg>
