<svg width="270" height="234" viewBox="0 0 270 234" fill="none" xmlns="http://www.w3.org/2000/svg">
<path d="M125.431 143.2V136.8H131.951V130.28H138.351V136.8H144.871V143.2H138.351V150.12H131.951V143.2H125.431Z" fill="white"/>
<path d="M58.2515 118.724C58.429 118.5 58.6727 118.271 58.9786 118.027" stroke="white" stroke-width="3" stroke-linecap="round" stroke-linejoin="round"/>
<path d="M69.7825 120.651C70.4026 120.179 71.0377 119.616 71.6617 118.939" stroke="white" stroke-width="3" stroke-linecap="round" stroke-linejoin="round"/>
<path d="M69.248 130.31C69.7492 132.669 68.8223 135.824 66.6938 136.544C63.1845 137.731 57.3807 138.477 49.765 133.549" stroke="white" stroke-width="3" stroke-linecap="round" stroke-linejoin="round"/>
<path d="M54.0973 135.987C51.9411 140.54 49.287 143.471 41.7672 145.067C34.2533 146.666 28.0595 147.655 28.0595 147.655" stroke="white" stroke-width="3" stroke-linecap="round" stroke-linejoin="round"/>
<path d="M69.7482 120.679C68.4699 121.726 67.2092 122.501 66.049 122.751C65.5124 122.861 64.9724 122.917 64.4307 122.915" stroke="white" stroke-width="3" stroke-linecap="round" stroke-linejoin="round"/>
<path d="M71.6633 118.933C72.1805 118.418 72.6912 117.881 73.1919 117.335" stroke="white" stroke-width="3" stroke-linecap="round" stroke-linejoin="round"/>
<path d="M75.7961 112.304C76.6468 113.336 77.8163 114.787 78.2544 115.474C78.9769 116.609 78.3322 121.16 77.4368 122.265C76.7094 123.156 72.8505 127.724 69.2498 130.304C68.3855 130.921 67.5416 131.428 66.7566 131.74C63.2184 133.151 53.4272 128.457 53.4272 128.457" stroke="white" stroke-width="3" stroke-linecap="round" stroke-linejoin="round"/>
<path d="M18.5896 123.147C18.5896 123.147 24.3337 117.559 27.2097 112.739C33.0978 99.8479 36.3865 98.4656 40.6615 96.2184C46.6069 93.1004 55.6903 91.2012 66.7717 86.0637C74.362 82.5449 79.0393 83.9897 88.0978 82.0443C98.9871 79.7026 103.589 79.7299 100.464 86.3987C97.4986 92.7344 88.3241 94.9354 81.5083 95.8471" stroke="white" stroke-width="3" stroke-linecap="round" stroke-linejoin="round"/>
<path d="M56.8952 120.458C56.8952 120.458 60.5607 122.902 64.3799 122.912C64.3858 122.914 64.3976 122.918 64.4053 122.914C64.4112 122.915 64.4231 122.919 64.4308 122.915C64.7529 122.896 67.0953 122.686 69.7483 120.679C69.7578 120.669 69.7732 120.661 69.7827 120.651C70.4094 120.136 71.038 119.551 71.6619 118.939C72.2177 118.338 72.7308 117.815 73.1905 117.341C73.1905 117.341 73.1905 117.341 73.1923 117.335C75.2053 115.309 76.297 114.302 75.7886 112.308C75.681 111.895 75.5095 111.436 75.2583 110.921C75.1196 110.995 74.9732 111.074 74.8227 111.145C72.8892 112.117 70.6361 112.992 67.9877 113.787C66.264 114.3 64.7534 114.812 63.4221 115.372C61.6889 116.237 60.1112 117.142 58.9943 118.019C58.9943 118.019 58.9866 118.023 58.9789 118.027C58.7251 118.247 58.4855 118.485 58.2518 118.724C58.2518 118.724 58.2518 118.724 58.25 118.73C57.7565 119.253 57.3055 119.827 56.9011 120.46L56.8952 120.458Z" stroke="white" stroke-width="3" stroke-linecap="round" stroke-linejoin="round"/>
<path d="M56.895 120.458C56.1179 121.664 55.4859 123.093 54.9606 124.833C54.571 126.123 54.0348 127.343 53.4254 128.463C52.3104 130.509 50.9521 132.248 49.7769 133.553C48.2624 135.233 47.0541 136.198 47.0541 136.198" stroke="white" stroke-width="3" stroke-linecap="round" stroke-linejoin="round"/>
<path d="M63.4219 115.372C61.648 116.115 60.1936 116.954 58.994 118.019" stroke="white" stroke-width="3" stroke-linecap="round" stroke-linejoin="round"/>
<path d="M75.264 110.923C78.5742 109.198 80.94 107.201 82.7978 104.94C85.7912 101.292 83.021 95.8197 81.5125 95.8548C80.7778 95.8718 76.0991 96.4411 71.0139 98.5921C60.5903 103.005 51.8102 104.841 46.6436 110.041" stroke="white" stroke-width="3" stroke-linecap="round" stroke-linejoin="round"/>
<path d="M112.981 81.4578H124.212" stroke="white" stroke-width="3" stroke-linecap="round" stroke-linejoin="round"/>
<path d="M112.981 87.2246H117.882" stroke="white" stroke-width="3" stroke-linecap="round" stroke-linejoin="round"/>
<path d="M103.561 72.0381V60.8074" stroke="white" stroke-width="3" stroke-linecap="round" stroke-linejoin="round"/>
<path d="M97.7943 72.0381V67.1366" stroke="white" stroke-width="3" stroke-linecap="round" stroke-linejoin="round"/>
<path d="M25.0175 47.7013C10.7975 51.8413 2 57.56 2 63.875C2 71.5021 14.8227 78.2572 34.5347 82.4133" stroke="white" stroke-width="3" stroke-linecap="round" stroke-linejoin="round"/>
<path d="M10.7074 45.6239L25.0174 47.7014L18.2074 57.8339" stroke="white" stroke-width="3" stroke-linecap="round" stroke-linejoin="round"/>
<path d="M136.148 80.0487C150.368 75.9087 159.166 70.19 159.166 63.875" stroke="white" stroke-width="3" stroke-linecap="round" stroke-linejoin="round"/>
<path d="M150.458 82.1262L136.148 80.0487L142.958 69.9162" stroke="white" stroke-width="3" stroke-linecap="round" stroke-linejoin="round"/>
<path d="M126.443 38.0332H126.435C126.435 38.1258 126.443 38.2183 126.443 38.3153V38.0332Z" stroke="white" stroke-width="3" stroke-miterlimit="10"/>
<path d="M114.538 27.3798V38.0333H128.599V32.0696C128.599 31.8184 128.621 31.5759 128.665 31.3379C125.09 28.9181 120.29 27.3798 116.892 27.3798H114.538Z" stroke="white" stroke-width="3" stroke-miterlimit="10"/>
<path d="M73.6784 31.3379C73.7225 31.5759 73.7445 31.8184 73.7445 32.0696V38.0333H87.8052V27.3798H85.4514C82.0531 27.3798 77.2531 28.9181 73.6784 31.3379Z" stroke="white" stroke-width="3" stroke-miterlimit="10"/>
<path d="M75.8999 38.0332V38.3153C75.8999 38.2183 75.9043 38.1258 75.9087 38.0332H75.8999Z" stroke="white" stroke-width="3" stroke-miterlimit="10"/>
<path d="M128.599 32.0697V38.0334H146.203V32.0697C146.203 29.8217 144.383 28.0013 142.135 28.0013H132.667C130.419 28.0013 128.599 29.8217 128.599 32.0697Z" stroke="white" stroke-width="3" stroke-miterlimit="10"/>
<path d="M146.203 49.9959H128.599V49.9518C128.599 52.1997 130.419 54.0201 132.667 54.0201H142.135C144.383 54.0201 146.203 52.1997 146.203 49.9518V49.9959Z" stroke="white" stroke-width="3" stroke-miterlimit="10"/>
<path d="M56.1356 32.0697V38.0334H73.7445V32.0697C73.7445 29.8217 71.9241 28.0013 69.6762 28.0013H60.2083C57.9604 28.0013 56.1356 29.8217 56.1356 32.0697Z" stroke="white" stroke-width="3" stroke-miterlimit="10"/>
<path d="M73.7445 49.9959H56.1356V49.9518C56.1356 52.1997 57.9604 54.0201 60.2083 54.0201H69.6762C71.9241 54.0201 73.7445 52.1997 73.7445 49.9518V49.9959Z" stroke="white" stroke-width="3" stroke-miterlimit="10"/>
<path d="M110.95 49.9958H155.574L158.166 38.0332H114.538" stroke="white" stroke-width="3" stroke-miterlimit="10"/>
<path d="M87.8052 38.0332H44.1774L46.7691 49.9958H91.3931" stroke="white" stroke-width="3" stroke-miterlimit="10"/>
<path d="M87.8053 25.242V42.1501C87.8053 43.6972 88.1403 45.1782 88.7485 46.5314C90.71 50.9215 95.532 54.0201 101.17 54.0201H101.174C106.811 54.0201 111.634 50.9171 113.595 46.5314C114.203 45.1782 114.538 43.6972 114.538 42.1501V25.242C114.538 21.7687 113.004 18.9478 111.113 18.9478H91.2301C90.2868 18.9478 89.4273 19.653 88.8102 20.7946C88.1887 21.9274 87.8053 23.5009 87.8053 25.2376V25.242Z" stroke="white" stroke-width="3" stroke-miterlimit="10"/>
<path d="M89.8134 20H68.7474L64.3134 2H138.313L133.879 20H112.813" stroke="white" stroke-width="3" stroke-miterlimit="10"/>
<path d="M93.1384 17.4271C93.1384 17.7268 93.3808 17.9648 93.6761 17.9648H108.662C108.962 17.9648 109.205 17.7268 109.205 17.4271C109.205 15.4392 108.398 13.6408 107.093 12.3361C105.793 11.0359 103.99 10.2292 102.002 10.2292H100.336C96.3604 10.2292 93.1384 13.4513 93.1384 17.4271Z" stroke="white" stroke-width="3" stroke-miterlimit="10"/>
<path d="M93.1384 37.4954C93.1384 37.7952 93.3808 38.0332 93.6761 38.0332H108.662C108.962 38.0332 109.205 37.7952 109.205 37.4954C109.205 35.5076 108.398 33.7092 107.093 32.4045C105.793 31.1042 103.99 30.2976 102.002 30.2976H100.336C96.3604 30.2976 93.1384 33.5197 93.1384 37.4954Z" stroke="white" stroke-width="3" stroke-miterlimit="10"/>
<path d="M262.418 144.721C255.598 145.627 255.8 146.251 249.188 144.405C242.577 142.56 235.617 140.613 230.395 139.157C225.173 137.7 209.5 146.828 206.285 148.929C203.07 151.03 200.553 155.487 202.983 159.494" stroke="white" stroke-width="3" stroke-linecap="round" stroke-linejoin="round"/>
<path d="M215.608 159.226C192.371 157.803 188.726 162.407 184.732 177.764C181.625 189.712 185.753 191.584 190.162 190.564C194.572 189.544 198.613 176.422 201.808 175.059C205.003 173.697 218.984 171.979 225.193 180.651C231.401 189.323 218.125 193.867 211.52 201.404C204.916 208.935 210.782 214.11 210.782 214.11C218.192 210.539 224.636 208.814 228.468 206.512C232.301 204.203 246.53 198.243 253.914 187.92C261.297 177.603 268.15 178.576 268.15 178.576" stroke="white" stroke-width="3" stroke-linecap="round" stroke-linejoin="round"/>
<path d="M204.956 174.281C204.956 174.281 205.526 181.234 208.03 183.02C210.534 184.805 223.662 190.974 223.662 190.974" stroke="white" stroke-width="3" stroke-linecap="round" stroke-linejoin="round"/>
<path d="M165.019 187.933H174.49" stroke="white" stroke-width="3" stroke-linecap="round" stroke-linejoin="round"/>
<path d="M174.49 178.463V187.933" stroke="white" stroke-width="3" stroke-linecap="round" stroke-linejoin="round"/>
<path d="M225.877 221.755H216.407" stroke="white" stroke-width="3" stroke-linecap="round" stroke-linejoin="round"/>
<path d="M216.407 231.226V221.755" stroke="white" stroke-width="3" stroke-linecap="round" stroke-linejoin="round"/>
<path d="M65.4485 232.326C73.2427 232.326 79.5612 226.007 79.5612 218.213C79.5612 210.419 73.2427 204.1 65.4485 204.1C57.6543 204.1 51.3358 210.419 51.3358 218.213C51.3358 226.007 57.6543 232.326 65.4485 232.326Z" stroke="white" stroke-width="3" stroke-miterlimit="10"/>
<path d="M65.4484 224.305C68.8129 224.305 71.5403 221.578 71.5403 218.213C71.5403 214.849 68.8129 212.121 65.4484 212.121C62.0839 212.121 59.3564 214.849 59.3564 218.213C59.3564 221.578 62.0839 224.305 65.4484 224.305Z" stroke="white" stroke-width="3" stroke-miterlimit="10"/>
<path d="M155.252 232.326C163.046 232.326 169.365 226.007 169.365 218.213C169.365 210.419 163.046 204.1 155.252 204.1C147.458 204.1 141.14 210.419 141.14 218.213C141.14 226.007 147.458 232.326 155.252 232.326Z" stroke="white" stroke-width="3" stroke-miterlimit="10"/>
<path d="M155.252 224.305C158.617 224.305 161.344 221.578 161.344 218.213C161.344 214.849 158.617 212.121 155.252 212.121C151.888 212.121 149.16 214.849 149.16 218.213C149.16 221.578 151.888 224.305 155.252 224.305Z" stroke="white" stroke-width="3" stroke-miterlimit="10"/>
<path d="M141.402 214.355H133.665L119.194 222.692H89.9394L79.5665 216.697" stroke="white" stroke-width="3" stroke-miterlimit="10"/>
<path d="M75.4678 208.264L94.8151 197.103H120.833V204.02C120.833 206.361 122.735 208.264 125.077 208.264H145.249" stroke="white" stroke-width="3" stroke-miterlimit="10"/>
<path d="M62.6624 204.39C58.0707 205.311 54.2987 208.446 52.4985 212.652H46.2887L38 192.817H57.8349L62.657 204.39H62.6624Z" stroke="white" stroke-width="3" stroke-miterlimit="10"/>
<path d="M92.3344 198.534L79.5612 205.901" stroke="white" stroke-width="3" stroke-miterlimit="10"/>
<path d="M78.6075 223.973L86.4247 228.2H129.352L141.359 221.299" stroke="white" stroke-width="3" stroke-miterlimit="10"/>
<path d="M179.138 211.559H190.277L195.65 222.692H195.254L184.115 222.698L179.138 211.559Z" stroke="white" stroke-width="3" stroke-miterlimit="10"/>
<path d="M181.11 215.963C177.434 214.527 172.928 213.214 167.983 212.116" stroke="white" stroke-width="3" stroke-miterlimit="10"/>
<path d="M168.009 222.698H168.631H184.115" stroke="white" stroke-width="3" stroke-miterlimit="10"/>
</svg>
